{"scene":0,"scenes":[{"nodes":[0]}],"asset":{"version":"2.0","generator":"https://github.com/mikedh/trimesh"},"accessors":[{"componentType":5125,"type":"SCALAR","bufferView":0,"count":189270,"max":[31547],"min":[0]},{"componentType":5126,"type":"VEC3","byteOffset":0,"bufferView":1,"count":31548,"max":[0.5324824452400208,0.574999988079071,0.2983611226081848],"min":[-0.5324824452400208,-0.574999988079071,-0.2983611226081848]},{"componentType":5121,"normalized":true,"type":"VEC4","byteOffset":0,"bufferView":2,"count":31548,"max":[214,164,171,255],"min":[0,0,0,255]}],"meshes":[{"name":"bust","extras":{},"primitives":[{"attributes":{"POSITION":1,"COLOR_0":2},"indices":0,"mode":4}]}],"nodes":[{"name":"world","children":[1]},{"name":"bust","mesh":0}],"buffers":[{"uri":"data:application/octet-stream;base64,","byteLength":757080},{"uri":"data:application/octet-stream;base64,","byteLength":378576},{"uri":"data:application/octet-stream;base64,","byteLength":126192}],"bufferViews":[{"buffer":0,"byteOffset":0,"byteLength":757080},{"buffer":1,"byteOffset":0,"byteLength":378576},{"buffer":2,"byteOffset":0,"byteLength":126192}]}