{"scene":0,"scenes":[{"nodes":[0]}],"asset":{"version":"2.0","generator":"https://github.com/mikedh/trimesh"},"accessors":[{"componentType":5125,"type":"SCALAR","bufferView":0,"count":118842,"max":[20080],"min":[0]},{"componentType":5126,"type":"VEC3","byteOffset":0,"bufferView":1,"count":20081,"max":[0.6499999761581421,0.6499999761581421,0.2034117579460144],"min":[-0.6499999761581421,-0.6499999761581421,-0.1885882318019867]},{"componentType":5126,"type":"VEC2","byteOffset":0,"bufferView":3,"count":20081,"max":[1.0,1.0],"min":[0.0,0.0]}],"meshes":[{"name":"geometry_0","extras":{},"primitives":[{"attributes":{"POSITION":1,"TEXCOORD_0":2},"indices":0,"mode":4,"material":0}]}],"images":[{"bufferView":2,"mimeType":"image/jpeg"}],"textures":[{"source":0}],"materials":[{"pbrMetallicRoughness":{"baseColorTexture":{"index":0},"roughnessFactor":1.0,"metallicFactor":0.0},"name":"portrait","doubleSided":false}],"nodes":[{"name":"world","children":[1]},{"name":"geometry_0","mesh":0}],"buffers":[{"uri":"data:application/octet-stream;base64,","byteLength":475368},{"uri":"data:application/octet-stream;base64,","byteLength":240972},{"uri":"data:application/octet-stream;base64,","byteLength":88256},{"uri":"data:application/octet-stream;base64,","byteLength":160648}],"bufferViews":[{"buffer":0,"byteOffset":0,"byteLength":475368},{"buffer":1,"byteOffset":0,"byteLength":240972},{"buffer":2,"byteOffset":0,"byteLength":88256},{"buffer":3,"byteOffset":0,"byteLength":160648}]}